# Created by Kenney (www.kenney.nl)

mtllib wood-stick-01.mtl

v 3 -2 1
v 3 -2 -1
v 2 -2 1
v 2 -2 -1
v 2 0 -1
v 2 0 1
v 3 0 -1
v 3 0 1
v -2 -2 1
v -2 -2 -1
v -2 0 -1
v -2 0 1
v 1 0 0.5
v 1 0 -0.5
v 0 0 0.5
v 0 0 -0.5
v 0 1 -0.5
v 0 1 0.5
v 1 1 -0.5
v 1 1 0.5
v -1 1 0.5
v -1 1 -0.5
v -1 2 -0.5
v -1 2 0.5
v 0 2 -0.5
v 0 2 0.5
v -1 0 0.5
v -1 0 -0.5
v -3 -2 1
v -3 -2 -1
v -3 0 -1
v -3 0 1

vn 0 -1 0
vn -1 0 0
vn 0 0 -1
vn 0 0 1
vn 1 0 0
vn 0 1 0

vt 0.0625 0.0625
vt 0.1875 0.0625

usemtl palette(Clone)

f 3/1/1 2/1/1 1/1/1
f 2/1/1 3/1/1 4/1/1
f 3/1/2 5/1/2 4/1/2
f 5/1/2 3/1/2 6/1/2
f 5/1/3 2/1/3 4/1/3
f 2/1/3 5/1/3 7/1/3
f 8/1/4 3/1/4 1/1/4
f 3/1/4 8/1/4 6/1/4
f 8/1/5 2/1/5 7/1/5
f 2/1/5 8/1/5 1/1/5
f 5/1/6 8/1/6 7/1/6
f 8/1/6 5/1/6 6/1/6
f 9/2/1 4/2/1 3/2/1
f 4/2/1 9/2/1 10/2/1
f 9/2/2 11/2/2 10/2/2
f 11/2/2 9/2/2 12/2/2
f 11/2/3 4/2/3 10/2/3
f 4/2/3 11/2/3 5/2/3
f 6/2/4 9/2/4 3/2/4
f 9/2/4 6/2/4 12/2/4
f 6/2/5 4/2/5 5/2/5
f 4/2/5 6/2/5 3/2/5
f 11/2/6 6/2/6 5/2/6
f 6/2/6 11/2/6 12/2/6
f 15/2/1 14/2/1 13/2/1
f 14/2/1 15/2/1 16/2/1
f 15/2/2 17/2/2 16/2/2
f 17/2/2 15/2/2 18/2/2
f 17/2/3 14/2/3 16/2/3
f 14/2/3 17/2/3 19/2/3
f 20/2/4 15/2/4 13/2/4
f 15/2/4 20/2/4 18/2/4
f 20/2/5 14/2/5 19/2/5
f 14/2/5 20/2/5 13/2/5
f 17/2/6 20/2/6 19/2/6
f 20/2/6 17/2/6 18/2/6
f 21/2/1 17/2/1 18/2/1
f 17/2/1 21/2/1 22/2/1
f 21/2/2 23/2/2 22/2/2
f 23/2/2 21/2/2 24/2/2
f 23/2/3 17/2/3 22/2/3
f 17/2/3 23/2/3 25/2/3
f 26/2/4 21/2/4 18/2/4
f 21/2/4 26/2/4 24/2/4
f 26/2/5 17/2/5 25/2/5
f 17/2/5 26/2/5 18/2/5
f 23/2/6 26/2/6 25/2/6
f 26/2/6 23/2/6 24/2/6
f 27/1/1 16/1/1 15/1/1
f 16/1/1 27/1/1 28/1/1
f 27/1/2 22/1/2 28/1/2
f 22/1/2 27/1/2 21/1/2
f 22/1/3 16/1/3 28/1/3
f 16/1/3 22/1/3 17/1/3
f 18/1/4 27/1/4 15/1/4
f 27/1/4 18/1/4 21/1/4
f 18/1/5 16/1/5 17/1/5
f 16/1/5 18/1/5 15/1/5
f 22/1/6 18/1/6 17/1/6
f 18/1/6 22/1/6 21/1/6
f 29/1/1 10/1/1 9/1/1
f 10/1/1 29/1/1 30/1/1
f 29/1/2 31/1/2 30/1/2
f 31/1/2 29/1/2 32/1/2
f 31/1/3 10/1/3 30/1/3
f 10/1/3 31/1/3 11/1/3
f 12/1/4 29/1/4 9/1/4
f 29/1/4 12/1/4 32/1/4
f 12/1/5 10/1/5 11/1/5
f 10/1/5 12/1/5 9/1/5
f 31/1/6 12/1/6 11/1/6
f 12/1/6 31/1/6 32/1/6

