# Created by Kenney (www.kenney.nl)

mtllib flower-01.mtl

v 4 3 0.5
v 4 3 -0.5
v 3 3 0.5
v 3 3 -0.5
v 3 4 -0.5
v 3 4 0.5
v 4 4 -0.5
v 4 4 0.5
v 2 4 0.5
v 2 4 -0.5
v 2 5 -0.5
v 2 5 0.5
v 3 5 -0.5
v 3 5 0.5
v 2 3 0.5
v 2 3 -0.5
v 3 2 0.5
v 3 2 -0.5
v 2 2 0.5
v 2 2 -0.5
v 3 0 0.5
v 3 0 -0.5
v 2 0 0.5
v 2 0 -0.5
v 1 3 0.5
v 1 3 -0.5
v 1 4 -0.5
v 1 4 0.5
v 2 -1 0.5
v 2 -1 -0.5
v 1 -1 0.5
v 1 -1 -0.5
v 1 1 -0.5
v 1 1 0.5
v 2 1 -0.5
v 2 1 0.5
v 2 -3 0.5
v 2 -3 -0.5
v -2 -3 0.5
v -2 -3 -0.5
v -2 -2 -0.5
v -2 -2 0.5
v 2 -2 -0.5
v 2 -2 0.5
v -2 -1 0.5
v -2 -1 -0.5
v -2 0 -0.5
v -2 0 0.5
v 1 0 -0.5
v 1 0 0.5
v 0 4 0.5
v 0 4 -0.5
v -1 4 0.5
v -1 4 -0.5
v -1 5 -0.5
v -1 5 0.5
v 0 5 -0.5
v 0 5 0.5
v 0 -2 0.5
v 0 -2 -0.5
v -1 -2 0.5
v -1 -2 -0.5
v -1 -1 -0.5
v -1 -1 0.5
v 0 -1 -0.5
v 0 -1 0.5
v -2 5 0.5
v -2 5 -0.5
v -2 6 -0.5
v -2 6 0.5
v -1 6 -0.5
v -1 6 0.5
v -2 4 0.5
v -2 4 -0.5
v -1 3 0.5
v -1 3 -0.5
v -2 3 0.5
v -2 3 -0.5
v -1 0 0.5
v -1 0 -0.5
v -3 4 0.5
v -3 4 -0.5
v -3 5 -0.5
v -3 5 0.5
v 1 -2 0.5
v 1 -2 -0.5

vn 0 -1 0
vn -1 0 0
vn 0 0 -1
vn 0 0 1
vn 1 0 0
vn 0 1 0

vt 0.0625 0.0625
vt 0.1875 0.0625
vt 0.3125 0.0625

usemtl palette(Clone)

f 3/1/1 2/1/1 1/1/1
f 2/1/1 3/1/1 4/1/1
f 3/1/2 5/1/2 4/1/2
f 5/1/2 3/1/2 6/1/2
f 5/1/3 2/1/3 4/1/3
f 2/1/3 5/1/3 7/1/3
f 8/1/4 3/1/4 1/1/4
f 3/1/4 8/1/4 6/1/4
f 8/1/5 2/1/5 7/1/5
f 2/1/5 8/1/5 1/1/5
f 5/1/6 8/1/6 7/1/6
f 8/1/6 5/1/6 6/1/6
f 9/1/1 5/1/1 6/1/1
f 5/1/1 9/1/1 10/1/1
f 9/1/2 11/1/2 10/1/2
f 11/1/2 9/1/2 12/1/2
f 11/1/3 5/1/3 10/1/3
f 5/1/3 11/1/3 13/1/3
f 14/1/4 9/1/4 6/1/4
f 9/1/4 14/1/4 12/1/4
f 14/1/5 5/1/5 13/1/5
f 5/1/5 14/1/5 6/1/5
f 11/1/6 14/1/6 13/1/6
f 14/1/6 11/1/6 12/1/6
f 15/2/1 4/2/1 3/2/1
f 4/2/1 15/2/1 16/2/1
f 15/2/2 10/2/2 16/2/2
f 10/2/2 15/2/2 9/2/2
f 10/2/3 4/2/3 16/2/3
f 4/2/3 10/2/3 5/2/3
f 6/2/4 15/2/4 3/2/4
f 15/2/4 6/2/4 9/2/4
f 6/2/5 4/2/5 5/2/5
f 4/2/5 6/2/5 3/2/5
f 10/2/6 6/2/6 5/2/6
f 6/2/6 10/2/6 9/2/6
f 19/1/1 18/1/1 17/1/1
f 18/1/1 19/1/1 20/1/1
f 19/1/2 16/1/2 20/1/2
f 16/1/2 19/1/2 15/1/2
f 16/1/3 18/1/3 20/1/3
f 18/1/3 16/1/3 4/1/3
f 3/1/4 19/1/4 17/1/4
f 19/1/4 3/1/4 15/1/4
f 3/1/5 18/1/5 4/1/5
f 18/1/5 3/1/5 17/1/5
f 16/1/6 3/1/6 4/1/6
f 3/1/6 16/1/6 15/1/6
f 23/3/1 22/3/1 21/3/1
f 22/3/1 23/3/1 24/3/1
f 23/3/2 20/3/2 24/3/2
f 20/3/2 23/3/2 19/3/2
f 20/3/3 22/3/3 24/3/3
f 22/3/3 20/3/3 18/3/3
f 17/3/4 23/3/4 21/3/4
f 23/3/4 17/3/4 19/3/4
f 17/3/5 22/3/5 18/3/5
f 22/3/5 17/3/5 21/3/5
f 20/3/6 17/3/6 18/3/6
f 17/3/6 20/3/6 19/3/6
f 25/1/1 16/1/1 15/1/1
f 16/1/1 25/1/1 26/1/1
f 25/1/2 27/1/2 26/1/2
f 27/1/2 25/1/2 28/1/2
f 27/1/3 16/1/3 26/1/3
f 16/1/3 27/1/3 10/1/3
f 9/1/4 25/1/4 15/1/4
f 25/1/4 9/1/4 28/1/4
f 9/1/5 16/1/5 10/1/5
f 16/1/5 9/1/5 15/1/5
f 27/1/6 9/1/6 10/1/6
f 9/1/6 27/1/6 28/1/6
f 31/3/1 30/3/1 29/3/1
f 30/3/1 31/3/1 32/3/1
f 31/3/2 33/3/2 32/3/2
f 33/3/2 31/3/2 34/3/2
f 33/3/3 30/3/3 32/3/3
f 30/3/3 33/3/3 35/3/3
f 36/3/4 31/3/4 29/3/4
f 31/3/4 36/3/4 34/3/4
f 36/3/5 30/3/5 35/3/5
f 30/3/5 36/3/5 29/3/5
f 33/3/6 36/3/6 35/3/6
f 36/3/6 33/3/6 34/3/6
f 39/3/1 38/3/1 37/3/1
f 38/3/1 39/3/1 40/3/1
f 39/3/2 41/3/2 40/3/2
f 41/3/2 39/3/2 42/3/2
f 41/3/3 38/3/3 40/3/3
f 38/3/3 41/3/3 43/3/3
f 44/3/4 39/3/4 37/3/4
f 39/3/4 44/3/4 42/3/4
f 44/3/5 38/3/5 43/3/5
f 38/3/5 44/3/5 37/3/5
f 41/3/6 44/3/6 43/3/6
f 44/3/6 41/3/6 42/3/6
f 45/3/1 32/3/1 31/3/1
f 32/3/1 45/3/1 46/3/1
f 45/3/2 47/3/2 46/3/2
f 47/3/2 45/3/2 48/3/2
f 47/3/3 32/3/3 46/3/3
f 32/3/3 47/3/3 49/3/3
f 50/3/4 45/3/4 31/3/4
f 45/3/4 50/3/4 48/3/4
f 50/3/5 32/3/5 49/3/5
f 32/3/5 50/3/5 31/3/5
f 47/3/6 50/3/6 49/3/6
f 50/3/6 47/3/6 48/3/6
f 53/1/1 52/1/1 51/1/1
f 52/1/1 53/1/1 54/1/1
f 53/1/2 55/1/2 54/1/2
f 55/1/2 53/1/2 56/1/2
f 55/1/3 52/1/3 54/1/3
f 52/1/3 55/1/3 57/1/3
f 58/1/4 53/1/4 51/1/4
f 53/1/4 58/1/4 56/1/4
f 58/1/5 52/1/5 57/1/5
f 52/1/5 58/1/5 51/1/5
f 55/1/6 58/1/6 57/1/6
f 58/1/6 55/1/6 56/1/6
f 61/3/1 60/3/1 59/3/1
f 60/3/1 61/3/1 62/3/1
f 61/3/2 63/3/2 62/3/2
f 63/3/2 61/3/2 64/3/2
f 63/3/3 60/3/3 62/3/3
f 60/3/3 63/3/3 65/3/3
f 66/3/4 61/3/4 59/3/4
f 61/3/4 66/3/4 64/3/4
f 66/3/5 60/3/5 65/3/5
f 60/3/5 66/3/5 59/3/5
f 63/3/6 66/3/6 65/3/6
f 66/3/6 63/3/6 64/3/6
f 67/1/1 55/1/1 56/1/1
f 55/1/1 67/1/1 68/1/1
f 67/1/2 69/1/2 68/1/2
f 69/1/2 67/1/2 70/1/2
f 69/1/3 55/1/3 68/1/3
f 55/1/3 69/1/3 71/1/3
f 72/1/4 67/1/4 56/1/4
f 67/1/4 72/1/4 70/1/4
f 72/1/5 55/1/5 71/1/5
f 55/1/5 72/1/5 56/1/5
f 69/1/6 72/1/6 71/1/6
f 72/1/6 69/1/6 70/1/6
f 73/2/1 54/2/1 53/2/1
f 54/2/1 73/2/1 74/2/1
f 73/2/2 68/2/2 74/2/2
f 68/2/2 73/2/2 67/2/2
f 68/2/3 54/2/3 74/2/3
f 54/2/3 68/2/3 55/2/3
f 56/2/4 73/2/4 53/2/4
f 73/2/4 56/2/4 67/2/4
f 56/2/5 54/2/5 55/2/5
f 54/2/5 56/2/5 53/2/5
f 68/2/6 56/2/6 55/2/6
f 56/2/6 68/2/6 67/2/6
f 77/1/1 76/1/1 75/1/1
f 76/1/1 77/1/1 78/1/1
f 77/1/2 74/1/2 78/1/2
f 74/1/2 77/1/2 73/1/2
f 74/1/3 76/1/3 78/1/3
f 76/1/3 74/1/3 54/1/3
f 53/1/4 77/1/4 75/1/4
f 77/1/4 53/1/4 73/1/4
f 53/1/5 76/1/5 54/1/5
f 76/1/5 53/1/5 75/1/5
f 74/1/6 53/1/6 54/1/6
f 53/1/6 74/1/6 73/1/6
f 48/3/1 80/3/1 79/3/1
f 80/3/1 48/3/1 47/3/1
f 48/3/2 78/3/2 47/3/2
f 78/3/2 48/3/2 77/3/2
f 78/3/3 80/3/3 47/3/3
f 80/3/3 78/3/3 76/3/3
f 75/3/4 48/3/4 79/3/4
f 48/3/4 75/3/4 77/3/4
f 75/3/5 80/3/5 76/3/5
f 80/3/5 75/3/5 79/3/5
f 78/3/6 75/3/6 76/3/6
f 75/3/6 78/3/6 77/3/6
f 81/1/1 74/1/1 73/1/1
f 74/1/1 81/1/1 82/1/1
f 81/1/2 83/1/2 82/1/2
f 83/1/2 81/1/2 84/1/2
f 83/1/3 74/1/3 82/1/3
f 74/1/3 83/1/3 68/1/3
f 67/1/4 81/1/4 73/1/4
f 81/1/4 67/1/4 84/1/4
f 67/1/5 74/1/5 68/1/5
f 74/1/5 67/1/5 73/1/5
f 83/1/6 67/1/6 68/1/6
f 67/1/6 83/1/6 84/1/6
f 59/3/1 86/3/1 85/3/1
f 86/3/1 59/3/1 60/3/1
f 59/3/2 65/3/2 60/3/2
f 65/3/2 59/3/2 66/3/2
f 65/3/3 86/3/3 60/3/3
f 86/3/3 65/3/3 32/3/3
f 31/3/4 59/3/4 85/3/4
f 59/3/4 31/3/4 66/3/4
f 31/3/5 86/3/5 32/3/5
f 86/3/5 31/3/5 85/3/5
f 65/3/6 31/3/6 32/3/6
f 31/3/6 65/3/6 66/3/6

