# Created by Kenney (www.kenney.nl)

mtllib flower-03.mtl

v 2 -3 0.5
v 2 -3 -0.5
v -1 -3 0.5
v -1 -3 -0.5
v -1 -2 -0.5
v -1 -2 0.5
v 2 -2 -0.5
v 2 -2 0.5
v 1 4 0.5
v 1 4 -0.5
v 0 4 0.5
v 0 4 -0.5
v 0 5 -0.5
v 0 5 0.5
v 1 5 -0.5
v 1 5 0.5
v 1 0 0.5
v 1 0 -0.5
v -1 0 0.5
v -1 0 -0.5
v -1 1 -0.5
v -1 1 0.5
v 1 1 -0.5
v 1 1 0.5
v -1 5 0.5
v -1 5 -0.5
v -1 6 -0.5
v -1 6 0.5
v 0 6 -0.5
v 0 6 0.5
v -1 4 0.5
v -1 4 -0.5
v 0 3 0.5
v 0 3 -0.5
v -1 3 0.5
v -1 3 -0.5
v 0 1 0.5
v 0 1 -0.5
v -2 4 0.5
v -2 4 -0.5
v -2 5 -0.5
v -2 5 0.5
v 1 -2 0.5
v 1 -2 -0.5
v 0 -2 0.5
v 0 -2 -0.5
v 0 0 -0.5
v 0 0 0.5

vn 0 -1 0
vn -1 0 0
vn 0 0 -1
vn 0 0 1
vn 1 0 0
vn 0 1 0

vt 0.0625 0.0625
vt 0.1875 0.0625
vt 0.3125 0.0625

usemtl palette(Clone)

f 3/1/1 2/1/1 1/1/1
f 2/1/1 3/1/1 4/1/1
f 3/1/2 5/1/2 4/1/2
f 5/1/2 3/1/2 6/1/2
f 5/1/3 2/1/3 4/1/3
f 2/1/3 5/1/3 7/1/3
f 8/1/4 3/1/4 1/1/4
f 3/1/4 8/1/4 6/1/4
f 8/1/5 2/1/5 7/1/5
f 2/1/5 8/1/5 1/1/5
f 5/1/6 8/1/6 7/1/6
f 8/1/6 5/1/6 6/1/6
f 11/2/1 10/2/1 9/2/1
f 10/2/1 11/2/1 12/2/1
f 11/2/2 13/2/2 12/2/2
f 13/2/2 11/2/2 14/2/2
f 13/2/3 10/2/3 12/2/3
f 10/2/3 13/2/3 15/2/3
f 16/2/4 11/2/4 9/2/4
f 11/2/4 16/2/4 14/2/4
f 16/2/5 10/2/5 15/2/5
f 10/2/5 16/2/5 9/2/5
f 13/2/6 16/2/6 15/2/6
f 16/2/6 13/2/6 14/2/6
f 19/1/1 18/1/1 17/1/1
f 18/1/1 19/1/1 20/1/1
f 19/1/2 21/1/2 20/1/2
f 21/1/2 19/1/2 22/1/2
f 21/1/3 18/1/3 20/1/3
f 18/1/3 21/1/3 23/1/3
f 24/1/4 19/1/4 17/1/4
f 19/1/4 24/1/4 22/1/4
f 24/1/5 18/1/5 23/1/5
f 18/1/5 24/1/5 17/1/5
f 21/1/6 24/1/6 23/1/6
f 24/1/6 21/1/6 22/1/6
f 25/2/1 13/2/1 14/2/1
f 13/2/1 25/2/1 26/2/1
f 25/2/2 27/2/2 26/2/2
f 27/2/2 25/2/2 28/2/2
f 27/2/3 13/2/3 26/2/3
f 13/2/3 27/2/3 29/2/3
f 30/2/4 25/2/4 14/2/4
f 25/2/4 30/2/4 28/2/4
f 30/2/5 13/2/5 29/2/5
f 13/2/5 30/2/5 14/2/5
f 27/2/6 30/2/6 29/2/6
f 30/2/6 27/2/6 28/2/6
f 31/3/1 12/3/1 11/3/1
f 12/3/1 31/3/1 32/3/1
f 31/3/2 26/3/2 32/3/2
f 26/3/2 31/3/2 25/3/2
f 26/3/3 12/3/3 32/3/3
f 12/3/3 26/3/3 13/3/3
f 14/3/4 31/3/4 11/3/4
f 31/3/4 14/3/4 25/3/4
f 14/3/5 12/3/5 13/3/5
f 12/3/5 14/3/5 11/3/5
f 26/3/6 14/3/6 13/3/6
f 14/3/6 26/3/6 25/3/6
f 35/2/1 34/2/1 33/2/1
f 34/2/1 35/2/1 36/2/1
f 35/2/2 32/2/2 36/2/2
f 32/2/2 35/2/2 31/2/2
f 32/2/3 34/2/3 36/2/3
f 34/2/3 32/2/3 12/2/3
f 11/2/4 35/2/4 33/2/4
f 35/2/4 11/2/4 31/2/4
f 11/2/5 34/2/5 12/2/5
f 34/2/5 11/2/5 33/2/5
f 32/2/6 11/2/6 12/2/6
f 11/2/6 32/2/6 31/2/6
f 22/1/1 38/1/1 37/1/1
f 38/1/1 22/1/1 21/1/1
f 22/1/2 36/1/2 21/1/2
f 36/1/2 22/1/2 35/1/2
f 36/1/3 38/1/3 21/1/3
f 38/1/3 36/1/3 34/1/3
f 33/1/4 22/1/4 37/1/4
f 22/1/4 33/1/4 35/1/4
f 33/1/5 38/1/5 34/1/5
f 38/1/5 33/1/5 37/1/5
f 36/1/6 33/1/6 34/1/6
f 33/1/6 36/1/6 35/1/6
f 39/2/1 32/2/1 31/2/1
f 32/2/1 39/2/1 40/2/1
f 39/2/2 41/2/2 40/2/2
f 41/2/2 39/2/2 42/2/2
f 41/2/3 32/2/3 40/2/3
f 32/2/3 41/2/3 26/2/3
f 25/2/4 39/2/4 31/2/4
f 39/2/4 25/2/4 42/2/4
f 25/2/5 32/2/5 26/2/5
f 32/2/5 25/2/5 31/2/5
f 41/2/6 25/2/6 26/2/6
f 25/2/6 41/2/6 42/2/6
f 45/1/1 44/1/1 43/1/1
f 44/1/1 45/1/1 46/1/1
f 45/1/2 47/1/2 46/1/2
f 47/1/2 45/1/2 48/1/2
f 47/1/3 44/1/3 46/1/3
f 44/1/3 47/1/3 18/1/3
f 17/1/4 45/1/4 43/1/4
f 45/1/4 17/1/4 48/1/4
f 17/1/5 44/1/5 18/1/5
f 44/1/5 17/1/5 43/1/5
f 47/1/6 17/1/6 18/1/6
f 17/1/6 47/1/6 48/1/6

