# Created by Kenney (www.kenney.nl)

mtllib flower-02.mtl

v 2 -2 0.5
v 2 -2 -0.5
v -1 -2 0.5
v -1 -2 -0.5
v -1 -1 -0.5
v -1 -1 0.5
v 2 -1 -0.5
v 2 -1 0.5
v 1 0 0.5
v 1 0 -0.5
v -1 0 0.5
v -1 0 -0.5
v -1 1 -0.5
v -1 1 0.5
v 1 1 -0.5
v 1 1 0.5
v 0 4 0.5
v 0 4 -0.5
v -1 4 0.5
v -1 4 -0.5
v -1 5 -0.5
v -1 5 0.5
v 0 5 -0.5
v 0 5 0.5
v 0 1 0.5
v 0 1 -0.5
v -2 1 0.5
v -2 1 -0.5
v -2 2 -0.5
v -2 2 0.5
v 0 2 -0.5
v 0 2 0.5
v -2 5 0.5
v -2 5 -0.5
v -2 6 -0.5
v -2 6 0.5
v -1 6 -0.5
v -1 6 0.5
v -2 4 0.5
v -2 4 -0.5
v -1 3 0.5
v -1 3 -0.5
v -2 3 0.5
v -2 3 -0.5
v -1 2 0.5
v -1 2 -0.5
v -3 4 0.5
v -3 4 -0.5
v -3 5 -0.5
v -3 5 0.5
v 1 -1 0.5
v 1 -1 -0.5
v 0 -1 0.5
v 0 -1 -0.5
v 0 0 -0.5
v 0 0 0.5

vn 0 -1 0
vn -1 0 0
vn 0 0 -1
vn 0 0 1
vn 1 0 0
vn 0 1 0

vt 0.0625 0.0625
vt 0.1875 0.0625
vt 0.3125 0.0625

usemtl palette(Clone)

f 3/1/1 2/1/1 1/1/1
f 2/1/1 3/1/1 4/1/1
f 3/1/2 5/1/2 4/1/2
f 5/1/2 3/1/2 6/1/2
f 5/1/3 2/1/3 4/1/3
f 2/1/3 5/1/3 7/1/3
f 8/1/4 3/1/4 1/1/4
f 3/1/4 8/1/4 6/1/4
f 8/1/5 2/1/5 7/1/5
f 2/1/5 8/1/5 1/1/5
f 5/1/6 8/1/6 7/1/6
f 8/1/6 5/1/6 6/1/6
f 11/1/1 10/1/1 9/1/1
f 10/1/1 11/1/1 12/1/1
f 11/1/2 13/1/2 12/1/2
f 13/1/2 11/1/2 14/1/2
f 13/1/3 10/1/3 12/1/3
f 10/1/3 13/1/3 15/1/3
f 16/1/4 11/1/4 9/1/4
f 11/1/4 16/1/4 14/1/4
f 16/1/5 10/1/5 15/1/5
f 10/1/5 16/1/5 9/1/5
f 13/1/6 16/1/6 15/1/6
f 16/1/6 13/1/6 14/1/6
f 19/2/1 18/2/1 17/2/1
f 18/2/1 19/2/1 20/2/1
f 19/2/2 21/2/2 20/2/2
f 21/2/2 19/2/2 22/2/2
f 21/2/3 18/2/3 20/2/3
f 18/2/3 21/2/3 23/2/3
f 24/2/4 19/2/4 17/2/4
f 19/2/4 24/2/4 22/2/4
f 24/2/5 18/2/5 23/2/5
f 18/2/5 24/2/5 17/2/5
f 21/2/6 24/2/6 23/2/6
f 24/2/6 21/2/6 22/2/6
f 27/1/1 26/1/1 25/1/1
f 26/1/1 27/1/1 28/1/1
f 27/1/2 29/1/2 28/1/2
f 29/1/2 27/1/2 30/1/2
f 29/1/3 26/1/3 28/1/3
f 26/1/3 29/1/3 31/1/3
f 32/1/4 27/1/4 25/1/4
f 27/1/4 32/1/4 30/1/4
f 32/1/5 26/1/5 31/1/5
f 26/1/5 32/1/5 25/1/5
f 29/1/6 32/1/6 31/1/6
f 32/1/6 29/1/6 30/1/6
f 33/2/1 21/2/1 22/2/1
f 21/2/1 33/2/1 34/2/1
f 33/2/2 35/2/2 34/2/2
f 35/2/2 33/2/2 36/2/2
f 35/2/3 21/2/3 34/2/3
f 21/2/3 35/2/3 37/2/3
f 38/2/4 33/2/4 22/2/4
f 33/2/4 38/2/4 36/2/4
f 38/2/5 21/2/5 37/2/5
f 21/2/5 38/2/5 22/2/5
f 35/2/6 38/2/6 37/2/6
f 38/2/6 35/2/6 36/2/6
f 39/3/1 20/3/1 19/3/1
f 20/3/1 39/3/1 40/3/1
f 39/3/2 34/3/2 40/3/2
f 34/3/2 39/3/2 33/3/2
f 34/3/3 20/3/3 40/3/3
f 20/3/3 34/3/3 21/3/3
f 22/3/4 39/3/4 19/3/4
f 39/3/4 22/3/4 33/3/4
f 22/3/5 20/3/5 21/3/5
f 20/3/5 22/3/5 19/3/5
f 34/3/6 22/3/6 21/3/6
f 22/3/6 34/3/6 33/3/6
f 43/2/1 42/2/1 41/2/1
f 42/2/1 43/2/1 44/2/1
f 43/2/2 40/2/2 44/2/2
f 40/2/2 43/2/2 39/2/2
f 40/2/3 42/2/3 44/2/3
f 42/2/3 40/2/3 20/2/3
f 19/2/4 43/2/4 41/2/4
f 43/2/4 19/2/4 39/2/4
f 19/2/5 42/2/5 20/2/5
f 42/2/5 19/2/5 41/2/5
f 40/2/6 19/2/6 20/2/6
f 19/2/6 40/2/6 39/2/6
f 30/1/1 46/1/1 45/1/1
f 46/1/1 30/1/1 29/1/1
f 30/1/2 44/1/2 29/1/2
f 44/1/2 30/1/2 43/1/2
f 44/1/3 46/1/3 29/1/3
f 46/1/3 44/1/3 42/1/3
f 41/1/4 30/1/4 45/1/4
f 30/1/4 41/1/4 43/1/4
f 41/1/5 46/1/5 42/1/5
f 46/1/5 41/1/5 45/1/5
f 44/1/6 41/1/6 42/1/6
f 41/1/6 44/1/6 43/1/6
f 47/2/1 40/2/1 39/2/1
f 40/2/1 47/2/1 48/2/1
f 47/2/2 49/2/2 48/2/2
f 49/2/2 47/2/2 50/2/2
f 49/2/3 40/2/3 48/2/3
f 40/2/3 49/2/3 34/2/3
f 33/2/4 47/2/4 39/2/4
f 47/2/4 33/2/4 50/2/4
f 33/2/5 40/2/5 34/2/5
f 40/2/5 33/2/5 39/2/5
f 49/2/6 33/2/6 34/2/6
f 33/2/6 49/2/6 50/2/6
f 53/1/1 52/1/1 51/1/1
f 52/1/1 53/1/1 54/1/1
f 53/1/2 55/1/2 54/1/2
f 55/1/2 53/1/2 56/1/2
f 55/1/3 52/1/3 54/1/3
f 52/1/3 55/1/3 10/1/3
f 9/1/4 53/1/4 51/1/4
f 53/1/4 9/1/4 56/1/4
f 9/1/5 52/1/5 10/1/5
f 52/1/5 9/1/5 51/1/5
f 55/1/6 9/1/6 10/1/6
f 9/1/6 55/1/6 56/1/6

