# Created by Kenney (www.kenney.nl)

mtllib stone-01.mtl

v 3 -1 2.5
v 3 -1 -2.5
v 2 -1 2.5
v 2 -1 -2.5
v 2 0 -2.5
v 2 0 2.5
v 3 0 -2.5
v 3 0 2.5
v 2 -1 3.5
v 2 -1 -3.5
v -3 -1 3.5
v -3 -1 -3.5
v -3 0 -3.5
v -3 0 3.5
v 2 0 -3.5
v 2 0 3.5
v 1 0 3
v 1 0 -3
v -2 0 3
v -2 0 -3
v -2 1 -3
v -2 1 3
v 1 1 -3
v 1 1 3
v 1 -2 4
v 1 -2 -4
v -3 -2 4
v -3 -2 -4
v -3 -1 -4
v -3 -1 4
v 1 -1 -4
v 1 -1 4
v 0 1 2.5
v 0 1 -2.5
v -2 1 2.5
v -2 1 -2.5
v -2 2 -2.5
v -2 2 2.5
v 0 2 -2.5
v 0 2 2.5
v -2 0 2.5
v -2 0 -2.5
v -3 0 2.5
v -3 0 -2.5
v -3 1 -2.5
v -3 1 2.5
v 3 -2 3.5
v 3 -2 -3.5
v 2 -2 3.5
v 2 -2 -3.5
v 3 -1 -3.5
v 3 -1 3.5
v 2 -2 4
v 2 -2 -4
v 2 -1 -4
v 2 -1 4

vn 0 -1 0
vn -1 0 0
vn 0 0 -1
vn 0 0 1
vn 1 0 0
vn 0 1 0

vt 0.0625 0.0625

usemtl palette(Clone)

f 3/1/1 2/1/1 1/1/1
f 2/1/1 3/1/1 4/1/1
f 3/1/2 5/1/2 4/1/2
f 5/1/2 3/1/2 6/1/2
f 5/1/3 2/1/3 4/1/3
f 2/1/3 5/1/3 7/1/3
f 8/1/4 3/1/4 1/1/4
f 3/1/4 8/1/4 6/1/4
f 8/1/5 2/1/5 7/1/5
f 2/1/5 8/1/5 1/1/5
f 5/1/6 8/1/6 7/1/6
f 8/1/6 5/1/6 6/1/6
f 11/1/1 10/1/1 9/1/1
f 10/1/1 11/1/1 12/1/1
f 11/1/2 13/1/2 12/1/2
f 13/1/2 11/1/2 14/1/2
f 13/1/3 10/1/3 12/1/3
f 10/1/3 13/1/3 15/1/3
f 16/1/4 11/1/4 9/1/4
f 11/1/4 16/1/4 14/1/4
f 16/1/5 10/1/5 15/1/5
f 10/1/5 16/1/5 9/1/5
f 13/1/6 16/1/6 15/1/6
f 16/1/6 13/1/6 14/1/6
f 19/1/1 18/1/1 17/1/1
f 18/1/1 19/1/1 20/1/1
f 19/1/2 21/1/2 20/1/2
f 21/1/2 19/1/2 22/1/2
f 21/1/3 18/1/3 20/1/3
f 18/1/3 21/1/3 23/1/3
f 24/1/4 19/1/4 17/1/4
f 19/1/4 24/1/4 22/1/4
f 24/1/5 18/1/5 23/1/5
f 18/1/5 24/1/5 17/1/5
f 21/1/6 24/1/6 23/1/6
f 24/1/6 21/1/6 22/1/6
f 27/1/1 26/1/1 25/1/1
f 26/1/1 27/1/1 28/1/1
f 27/1/2 29/1/2 28/1/2
f 29/1/2 27/1/2 30/1/2
f 29/1/3 26/1/3 28/1/3
f 26/1/3 29/1/3 31/1/3
f 32/1/4 27/1/4 25/1/4
f 27/1/4 32/1/4 30/1/4
f 32/1/5 26/1/5 31/1/5
f 26/1/5 32/1/5 25/1/5
f 29/1/6 32/1/6 31/1/6
f 32/1/6 29/1/6 30/1/6
f 35/1/1 34/1/1 33/1/1
f 34/1/1 35/1/1 36/1/1
f 35/1/2 37/1/2 36/1/2
f 37/1/2 35/1/2 38/1/2
f 37/1/3 34/1/3 36/1/3
f 34/1/3 37/1/3 39/1/3
f 40/1/4 35/1/4 33/1/4
f 35/1/4 40/1/4 38/1/4
f 40/1/5 34/1/5 39/1/5
f 34/1/5 40/1/5 33/1/5
f 37/1/6 40/1/6 39/1/6
f 40/1/6 37/1/6 38/1/6
f 43/1/1 42/1/1 41/1/1
f 42/1/1 43/1/1 44/1/1
f 43/1/2 45/1/2 44/1/2
f 45/1/2 43/1/2 46/1/2
f 45/1/3 42/1/3 44/1/3
f 42/1/3 45/1/3 36/1/3
f 35/1/4 43/1/4 41/1/4
f 43/1/4 35/1/4 46/1/4
f 35/1/5 42/1/5 36/1/5
f 42/1/5 35/1/5 41/1/5
f 45/1/6 35/1/6 36/1/6
f 35/1/6 45/1/6 46/1/6
f 49/1/1 48/1/1 47/1/1
f 48/1/1 49/1/1 50/1/1
f 49/1/2 10/1/2 50/1/2
f 10/1/2 49/1/2 9/1/2
f 10/1/3 48/1/3 50/1/3
f 48/1/3 10/1/3 51/1/3
f 52/1/4 49/1/4 47/1/4
f 49/1/4 52/1/4 9/1/4
f 52/1/5 48/1/5 51/1/5
f 48/1/5 52/1/5 47/1/5
f 10/1/6 52/1/6 51/1/6
f 52/1/6 10/1/6 9/1/6
f 25/1/1 54/1/1 53/1/1
f 54/1/1 25/1/1 26/1/1
f 25/1/2 31/1/2 26/1/2
f 31/1/2 25/1/2 32/1/2
f 31/1/3 54/1/3 26/1/3
f 54/1/3 31/1/3 55/1/3
f 56/1/4 25/1/4 53/1/4
f 25/1/4 56/1/4 32/1/4
f 56/1/5 54/1/5 55/1/5
f 54/1/5 56/1/5 53/1/5
f 31/1/6 56/1/6 55/1/6
f 56/1/6 31/1/6 32/1/6

