# Created by Kenney (www.kenney.nl)

mtllib wood-gate.mtl

v 3 3 0.5
v 3 3 -0.5
v -3 3 0.5
v -3 3 -0.5
v -3 4 -0.5
v -3 4 0.5
v 3 4 -0.5
v 3 4 0.5
v 3 2 1
v 3 2 -1
v 2 2 1
v 2 2 -1
v 2 3 -1
v 2 3 1
v 3 3 -1
v 3 3 1
v 3 -1 0.5
v 3 -1 -0.5
v 2 -1 0.5
v 2 -1 -0.5
v 2 2 -0.5
v 2 2 0.5
v 3 2 -0.5
v 3 2 0.5
v 3 -2 1
v 3 -2 -1
v 2 -2 1
v 2 -2 -1
v 2 -1 -1
v 2 -1 1
v 3 -1 -1
v 3 -1 1
v 3 -3 0.5
v 3 -3 -0.5
v -3 -3 0.5
v -3 -3 -0.5
v -3 -2 -0.5
v -3 -2 0.5
v 3 -2 -0.5
v 3 -2 0.5
v 2 4 0.5
v 2 4 -0.5
v -2 4 0.5
v -2 4 -0.5
v -2 5 -0.5
v -2 5 0.5
v 2 5 -0.5
v 2 5 0.5
v 2 -2 0.5
v 2 -2 -0.5
v 1 -2 0.5
v 1 -2 -0.5
v 1 3 -0.5
v 1 3 0.5
v 2 3 -0.5
v 2 3 0.5
v 0 -2 0.5
v 0 -2 -0.5
v 0 3 -0.5
v 0 3 0.5
v -1 -2 0.5
v -1 -2 -0.5
v -1 3 -0.5
v -1 3 0.5
v -1 2 0.5
v -1 2 -0.5
v -3 2 0.5
v -3 2 -0.5
v -1 0 1
v -1 0 -1
v -2 0 1
v -2 0 -1
v -2 2 -1
v -2 2 1
v -1 2 -1
v -1 2 1
v -3 0 -0.5
v -3 0 0.5
v -1 0 -0.5
v -1 0 0.5
v -2 0 0.5
v -2 0 -0.5
v -2 2 -0.5
v -2 2 0.5

vn 0 -1 0
vn -1 0 0
vn 0 0 -1
vn 0 0 1
vn 1 0 0
vn 0 1 0

vt 0.0625 0.0625
vt 0.1875 0.0625
vt 0.3125 0.0625
vt 0.4375 0.0625

usemtl palette(Clone)

f 3/1/1 2/1/1 1/1/1
f 2/1/1 3/1/1 4/1/1
f 3/1/2 5/1/2 4/1/2
f 5/1/2 3/1/2 6/1/2
f 5/1/3 2/1/3 4/1/3
f 2/1/3 5/1/3 7/1/3
f 8/1/4 3/1/4 1/1/4
f 3/1/4 8/1/4 6/1/4
f 8/1/5 2/1/5 7/1/5
f 2/1/5 8/1/5 1/1/5
f 5/1/6 8/1/6 7/1/6
f 8/1/6 5/1/6 6/1/6
f 11/2/1 10/2/1 9/2/1
f 10/2/1 11/2/1 12/2/1
f 11/2/2 13/2/2 12/2/2
f 13/2/2 11/2/2 14/2/2
f 13/2/3 10/2/3 12/2/3
f 10/2/3 13/2/3 15/2/3
f 16/2/4 11/2/4 9/2/4
f 11/2/4 16/2/4 14/2/4
f 16/2/5 10/2/5 15/2/5
f 10/2/5 16/2/5 9/2/5
f 13/2/6 16/2/6 15/2/6
f 16/2/6 13/2/6 14/2/6
f 19/1/1 18/1/1 17/1/1
f 18/1/1 19/1/1 20/1/1
f 19/1/2 21/1/2 20/1/2
f 21/1/2 19/1/2 22/1/2
f 21/1/3 18/1/3 20/1/3
f 18/1/3 21/1/3 23/1/3
f 24/1/4 19/1/4 17/1/4
f 19/1/4 24/1/4 22/1/4
f 24/1/5 18/1/5 23/1/5
f 18/1/5 24/1/5 17/1/5
f 21/1/6 24/1/6 23/1/6
f 24/1/6 21/1/6 22/1/6
f 27/2/1 26/2/1 25/2/1
f 26/2/1 27/2/1 28/2/1
f 27/2/2 29/2/2 28/2/2
f 29/2/2 27/2/2 30/2/2
f 29/2/3 26/2/3 28/2/3
f 26/2/3 29/2/3 31/2/3
f 32/2/4 27/2/4 25/2/4
f 27/2/4 32/2/4 30/2/4
f 32/2/5 26/2/5 31/2/5
f 26/2/5 32/2/5 25/2/5
f 29/2/6 32/2/6 31/2/6
f 32/2/6 29/2/6 30/2/6
f 35/1/1 34/1/1 33/1/1
f 34/1/1 35/1/1 36/1/1
f 35/1/2 37/1/2 36/1/2
f 37/1/2 35/1/2 38/1/2
f 37/1/3 34/1/3 36/1/3
f 34/1/3 37/1/3 39/1/3
f 40/1/4 35/1/4 33/1/4
f 35/1/4 40/1/4 38/1/4
f 40/1/5 34/1/5 39/1/5
f 34/1/5 40/1/5 33/1/5
f 37/1/6 40/1/6 39/1/6
f 40/1/6 37/1/6 38/1/6
f 43/1/1 42/1/1 41/1/1
f 42/1/1 43/1/1 44/1/1
f 43/1/2 45/1/2 44/1/2
f 45/1/2 43/1/2 46/1/2
f 45/1/3 42/1/3 44/1/3
f 42/1/3 45/1/3 47/1/3
f 48/1/4 43/1/4 41/1/4
f 43/1/4 48/1/4 46/1/4
f 48/1/5 42/1/5 47/1/5
f 42/1/5 48/1/5 41/1/5
f 45/1/6 48/1/6 47/1/6
f 48/1/6 45/1/6 46/1/6
f 51/3/1 50/3/1 49/3/1
f 50/3/1 51/3/1 52/3/1
f 51/3/2 53/3/2 52/3/2
f 53/3/2 51/3/2 54/3/2
f 53/3/3 50/3/3 52/3/3
f 50/3/3 53/3/3 55/3/3
f 56/3/4 51/3/4 49/3/4
f 51/3/4 56/3/4 54/3/4
f 56/3/5 50/3/5 55/3/5
f 50/3/5 56/3/5 49/3/5
f 53/3/6 56/3/6 55/3/6
f 56/3/6 53/3/6 54/3/6
f 57/1/1 52/1/1 51/1/1
f 52/1/1 57/1/1 58/1/1
f 57/1/2 59/1/2 58/1/2
f 59/1/2 57/1/2 60/1/2
f 59/1/3 52/1/3 58/1/3
f 52/1/3 59/1/3 53/1/3
f 54/1/4 57/1/4 51/1/4
f 57/1/4 54/1/4 60/1/4
f 54/1/5 52/1/5 53/1/5
f 52/1/5 54/1/5 51/1/5
f 59/1/6 54/1/6 53/1/6
f 54/1/6 59/1/6 60/1/6
f 61/3/1 58/3/1 57/3/1
f 58/3/1 61/3/1 62/3/1
f 61/3/2 63/3/2 62/3/2
f 63/3/2 61/3/2 64/3/2
f 63/3/3 58/3/3 62/3/3
f 58/3/3 63/3/3 59/3/3
f 60/3/4 61/3/4 57/3/4
f 61/3/4 60/3/4 64/3/4
f 60/3/5 58/3/5 59/3/5
f 58/3/5 60/3/5 57/3/5
f 63/3/6 60/3/6 59/3/6
f 60/3/6 63/3/6 64/3/6
f 67/1/1 66/1/1 65/1/1
f 66/1/1 67/1/1 68/1/1
f 67/1/2 4/1/2 68/1/2
f 4/1/2 67/1/2 3/1/2
f 4/1/3 66/1/3 68/1/3
f 66/1/3 4/1/3 63/1/3
f 64/1/4 67/1/4 65/1/4
f 67/1/4 64/1/4 3/1/4
f 64/1/5 66/1/5 63/1/5
f 66/1/5 64/1/5 65/1/5
f 4/1/6 64/1/6 63/1/6
f 64/1/6 4/1/6 3/1/6
f 71/4/1 70/4/1 69/4/1
f 70/4/1 71/4/1 72/4/1
f 71/4/2 73/4/2 72/4/2
f 73/4/2 71/4/2 74/4/2
f 73/4/3 70/4/3 72/4/3
f 70/4/3 73/4/3 75/4/3
f 76/4/4 71/4/4 69/4/4
f 71/4/4 76/4/4 74/4/4
f 76/4/5 70/4/5 75/4/5
f 70/4/5 76/4/5 69/4/5
f 73/4/6 76/4/6 75/4/6
f 76/4/6 73/4/6 74/4/6
f 38/1/1 62/1/1 61/1/1
f 62/1/1 38/1/1 37/1/1
f 38/1/2 77/1/2 37/1/2
f 77/1/2 38/1/2 78/1/2
f 77/1/3 62/1/3 37/1/3
f 62/1/3 77/1/3 79/1/3
f 80/1/4 38/1/4 61/1/4
f 38/1/4 80/1/4 78/1/4
f 80/1/5 62/1/5 79/1/5
f 62/1/5 80/1/5 61/1/5
f 77/1/6 80/1/6 79/1/6
f 80/1/6 77/1/6 78/1/6
f 78/1/1 82/1/1 81/1/1
f 82/1/1 78/1/1 77/1/1
f 78/1/2 68/1/2 77/1/2
f 68/1/2 78/1/2 67/1/2
f 68/1/3 82/1/3 77/1/3
f 82/1/3 68/1/3 83/1/3
f 84/1/4 78/1/4 81/1/4
f 78/1/4 84/1/4 67/1/4
f 84/1/5 82/1/5 83/1/5
f 82/1/5 84/1/5 81/1/5
f 68/1/6 84/1/6 83/1/6
f 84/1/6 68/1/6 67/1/6

